<svg width="261" height="258" viewBox="0 0 261 258" fill="none" xmlns="http://www.w3.org/2000/svg">
<g filter="url(#filter0_d)">
<rect x="16" y="12.5854" width="229" height="224.811" rx="15" fill="#E66D30" fill-opacity="0.92"/>
</g>
<path d="M37.148 182.145H34.1695L33.5006 184H32.5338L35.2486 176.891H36.0689L38.7887 184H37.8268L37.148 182.145ZM34.4527 181.373H36.8697L35.6588 178.048L34.4527 181.373ZM43.2072 183.478C42.8557 183.891 42.3397 184.098 41.6594 184.098C41.0962 184.098 40.6665 183.935 40.3703 183.609C40.0773 183.281 39.9292 182.796 39.926 182.154V178.717H40.8293V182.13C40.8293 182.931 41.1548 183.331 41.8059 183.331C42.496 183.331 42.9549 183.074 43.1828 182.56V178.717H44.0861V184H43.2268L43.2072 183.478ZM47.0887 177.438V178.717H48.075V179.415H47.0887V182.691C47.0887 182.903 47.1326 183.062 47.2205 183.17C47.3084 183.274 47.4581 183.326 47.6697 183.326C47.7739 183.326 47.9171 183.307 48.0994 183.268V184C47.8618 184.065 47.6307 184.098 47.4061 184.098C47.0024 184.098 46.698 183.976 46.493 183.731C46.2879 183.487 46.1854 183.141 46.1854 182.691V179.415H45.2234V178.717H46.1854V177.438H47.0887ZM49.1977 181.31C49.1977 180.792 49.2986 180.326 49.5004 179.913C49.7055 179.5 49.9887 179.181 50.35 178.956C50.7146 178.731 51.1296 178.619 51.5951 178.619C52.3145 178.619 52.8956 178.868 53.3383 179.366C53.7842 179.864 54.0072 180.527 54.0072 181.354V181.417C54.0072 181.931 53.9079 182.394 53.7094 182.804C53.5141 183.211 53.2325 183.528 52.8646 183.756C52.5001 183.984 52.0801 184.098 51.6049 184.098C50.8887 184.098 50.3077 183.849 49.8617 183.351C49.419 182.853 49.1977 182.193 49.1977 181.373V181.31ZM50.1059 181.417C50.1059 182.003 50.241 182.473 50.5111 182.828C50.7846 183.183 51.1492 183.36 51.6049 183.36C52.0639 183.36 52.4285 183.181 52.6986 182.823C52.9688 182.462 53.1039 181.957 53.1039 181.31C53.1039 180.73 52.9656 180.261 52.6889 179.903C52.4154 179.542 52.0508 179.361 51.5951 179.361C51.1492 179.361 50.7895 179.539 50.516 179.894C50.2426 180.248 50.1059 180.756 50.1059 181.417ZM56.3896 178.717L56.4141 179.303C56.8014 178.847 57.3239 178.619 57.9814 178.619C58.7204 178.619 59.2233 178.902 59.4902 179.469C59.666 179.215 59.8939 179.01 60.1738 178.854C60.457 178.697 60.7907 178.619 61.1748 178.619C62.3337 178.619 62.9229 179.233 62.9424 180.46V184H62.0391V180.514C62.0391 180.136 61.9528 179.854 61.7803 179.669C61.6077 179.48 61.318 179.386 60.9111 179.386C60.5758 179.386 60.2975 179.487 60.0762 179.688C59.8548 179.887 59.7262 180.156 59.6904 180.494V184H58.7822V180.538C58.7822 179.77 58.4062 179.386 57.6543 179.386C57.0618 179.386 56.6566 179.638 56.4385 180.143V184H55.5352V178.717H56.3896ZM67.9713 184C67.9192 183.896 67.8769 183.71 67.8443 183.443C67.4244 183.88 66.9231 184.098 66.3404 184.098C65.8196 184.098 65.3915 183.951 65.0563 183.658C64.7242 183.362 64.5582 182.988 64.5582 182.535C64.5582 181.985 64.7665 181.559 65.1832 181.256C65.6031 180.95 66.1923 180.797 66.9508 180.797H67.8297V180.382C67.8297 180.066 67.7353 179.815 67.5465 179.63C67.3577 179.441 67.0794 179.347 66.7115 179.347C66.3893 179.347 66.1191 179.428 65.901 179.591C65.6829 179.754 65.5738 179.951 65.5738 180.182H64.6656C64.6656 179.918 64.7584 179.664 64.9439 179.42C65.1327 179.173 65.3867 178.977 65.7057 178.834C66.0279 178.691 66.3811 178.619 66.7652 178.619C67.374 178.619 67.8508 178.772 68.1959 179.078C68.541 179.381 68.72 179.799 68.733 180.333V182.765C68.733 183.25 68.7949 183.635 68.9186 183.922V184H67.9713ZM66.4723 183.312C66.7555 183.312 67.024 183.238 67.2779 183.092C67.5318 182.945 67.7158 182.755 67.8297 182.521V181.437H67.1217C66.0149 181.437 65.4615 181.76 65.4615 182.408C65.4615 182.691 65.5559 182.913 65.7447 183.072C65.9335 183.232 66.176 183.312 66.4723 183.312ZM71.7746 177.438V178.717H72.7609V179.415H71.7746V182.691C71.7746 182.903 71.8186 183.062 71.9064 183.17C71.9943 183.274 72.1441 183.326 72.3557 183.326C72.4598 183.326 72.6031 183.307 72.7854 183.268V184C72.5477 184.065 72.3166 184.098 72.092 184.098C71.6883 184.098 71.384 183.976 71.1789 183.731C70.9738 183.487 70.8713 183.141 70.8713 182.691V179.415H69.9094V178.717H70.8713V177.438H71.7746ZM75.202 184H74.2986V178.717H75.202V184ZM74.2254 177.315C74.2254 177.169 74.2693 177.045 74.3572 176.944C74.4484 176.843 74.5818 176.793 74.7576 176.793C74.9334 176.793 75.0669 176.843 75.158 176.944C75.2492 177.045 75.2947 177.169 75.2947 177.315C75.2947 177.462 75.2492 177.584 75.158 177.682C75.0669 177.779 74.9334 177.828 74.7576 177.828C74.5818 177.828 74.4484 177.779 74.3572 177.682C74.2693 177.584 74.2254 177.462 74.2254 177.315ZM79.1713 183.36C79.4936 183.36 79.7751 183.263 80.016 183.067C80.2569 182.872 80.3904 182.628 80.4164 182.335H81.2709C81.2546 182.638 81.1505 182.926 80.9584 183.199C80.7663 183.473 80.5092 183.691 80.1869 183.854C79.8679 184.016 79.5294 184.098 79.1713 184.098C78.4519 184.098 77.879 183.858 77.4525 183.38C77.0294 182.898 76.8178 182.241 76.8178 181.407V181.256C76.8178 180.742 76.9122 180.284 77.101 179.884C77.2898 179.483 77.56 179.173 77.9115 178.951C78.2663 178.73 78.6846 178.619 79.1664 178.619C79.7589 178.619 80.2504 178.797 80.641 179.151C81.0349 179.506 81.2449 179.967 81.2709 180.533H80.4164C80.3904 180.191 80.2602 179.911 80.0258 179.693C79.7947 179.472 79.5082 179.361 79.1664 179.361C78.7074 179.361 78.351 179.527 78.0971 179.859C77.8464 180.188 77.7211 180.665 77.7211 181.29V181.461C77.7211 182.07 77.8464 182.538 78.0971 182.867C78.3477 183.196 78.7058 183.36 79.1713 183.36Z" fill="white"/>
<rect x="151" y="128.264" width="77.919" height="22.0964" fill="black" fill-opacity="0.4"/>
<path d="M169.543 140.902C169.543 140.572 169.426 140.295 169.194 140.069C168.964 139.844 168.576 139.639 168.028 139.457C167.265 139.224 166.709 138.921 166.358 138.549C166.01 138.173 165.837 137.697 165.837 137.12C165.837 136.533 166.007 136.052 166.347 135.676C166.691 135.3 167.161 135.076 167.759 135.004V133.828H168.56V135.01C169.161 135.092 169.629 135.344 169.962 135.767C170.298 136.189 170.466 136.768 170.466 137.502H169.478C169.478 136.997 169.358 136.596 169.118 136.299C168.878 136.001 168.554 135.853 168.146 135.853C167.72 135.853 167.394 135.964 167.169 136.186C166.943 136.404 166.83 136.71 166.83 137.104C166.83 137.469 166.948 137.761 167.185 137.98C167.425 138.195 167.817 138.392 168.361 138.571C168.909 138.746 169.335 138.941 169.639 139.156C169.947 139.367 170.173 139.614 170.316 139.897C170.463 140.18 170.536 140.511 170.536 140.891C170.536 141.496 170.354 141.983 169.988 142.352C169.627 142.721 169.118 142.939 168.463 143.007V144.033H167.668V143.007C167.002 142.946 166.479 142.71 166.1 142.298C165.724 141.883 165.536 141.321 165.536 140.612H166.529C166.529 141.109 166.66 141.492 166.922 141.761C167.183 142.03 167.554 142.164 168.033 142.164C168.502 142.164 168.871 142.051 169.14 141.825C169.408 141.6 169.543 141.292 169.543 140.902ZM177.766 142.916H176.767V136.293L174.763 137.029V136.127L177.61 135.058H177.766V142.916ZM181.133 138.995L181.531 135.095H185.538V136.014H182.374L182.138 138.146C182.521 137.921 182.956 137.808 183.443 137.808C184.156 137.808 184.721 138.044 185.14 138.517C185.559 138.986 185.769 139.622 185.769 140.424C185.769 141.229 185.55 141.865 185.113 142.33C184.68 142.792 184.073 143.023 183.293 143.023C182.602 143.023 182.038 142.832 181.601 142.448C181.164 142.065 180.915 141.535 180.854 140.859H181.794C181.855 141.306 182.014 141.645 182.272 141.874C182.53 142.099 182.87 142.212 183.293 142.212C183.755 142.212 184.116 142.055 184.378 141.74C184.643 141.424 184.775 140.989 184.775 140.434C184.775 139.912 184.632 139.493 184.345 139.177C184.063 138.859 183.685 138.699 183.212 138.699C182.779 138.699 182.439 138.794 182.192 138.984L181.928 139.199L181.133 138.995ZM191.757 139.58C191.757 140.744 191.559 141.609 191.161 142.175C190.764 142.74 190.143 143.023 189.298 143.023C188.463 143.023 187.846 142.747 187.445 142.196C187.043 141.641 186.836 140.814 186.821 139.715V138.388C186.821 137.239 187.02 136.385 187.418 135.826C187.815 135.267 188.438 134.988 189.287 134.988C190.128 134.988 190.748 135.258 191.145 135.799C191.543 136.336 191.747 137.167 191.757 138.291V139.58ZM190.764 138.221C190.764 137.38 190.646 136.768 190.409 136.385C190.173 135.998 189.799 135.804 189.287 135.804C188.778 135.804 188.408 135.996 188.175 136.379C187.942 136.762 187.822 137.351 187.815 138.146V139.736C187.815 140.581 187.937 141.206 188.18 141.611C188.427 142.012 188.8 142.212 189.298 142.212C189.788 142.212 190.152 142.022 190.388 141.643C190.628 141.263 190.753 140.665 190.764 139.849V138.221ZM193.154 142.395C193.154 142.223 193.204 142.08 193.304 141.965C193.408 141.851 193.562 141.793 193.766 141.793C193.97 141.793 194.124 141.851 194.228 141.965C194.336 142.08 194.389 142.223 194.389 142.395C194.389 142.559 194.336 142.697 194.228 142.808C194.124 142.919 193.97 142.975 193.766 142.975C193.562 142.975 193.408 142.919 193.304 142.808C193.204 142.697 193.154 142.559 193.154 142.395ZM200.835 139.58C200.835 140.744 200.636 141.609 200.238 142.175C199.841 142.74 199.22 143.023 198.375 143.023C197.54 143.023 196.923 142.747 196.522 142.196C196.121 141.641 195.913 140.814 195.899 139.715V138.388C195.899 137.239 196.097 136.385 196.495 135.826C196.892 135.267 197.515 134.988 198.364 134.988C199.205 134.988 199.825 135.258 200.222 135.799C200.62 136.336 200.824 137.167 200.835 138.291V139.58ZM199.841 138.221C199.841 137.38 199.723 136.768 199.487 136.385C199.25 135.998 198.876 135.804 198.364 135.804C197.855 135.804 197.485 135.996 197.252 136.379C197.019 136.762 196.899 137.351 196.892 138.146V139.736C196.892 140.581 197.014 141.206 197.257 141.611C197.505 142.012 197.877 142.212 198.375 142.212C198.865 142.212 199.229 142.022 199.465 141.643C199.705 141.263 199.83 140.665 199.841 139.849V138.221ZM207.011 139.58C207.011 140.744 206.813 141.609 206.415 142.175C206.018 142.74 205.396 143.023 204.551 143.023C203.717 143.023 203.099 142.747 202.698 142.196C202.297 141.641 202.09 140.814 202.075 139.715V138.388C202.075 137.239 202.274 136.385 202.672 135.826C203.069 135.267 203.692 134.988 204.541 134.988C205.382 134.988 206.002 135.258 206.399 135.799C206.797 136.336 207.001 137.167 207.011 138.291V139.58ZM206.018 138.221C206.018 137.38 205.9 136.768 205.663 136.385C205.427 135.998 205.053 135.804 204.541 135.804C204.032 135.804 203.662 135.996 203.429 136.379C203.196 136.762 203.076 137.351 203.069 138.146V139.736C203.069 140.581 203.191 141.206 203.434 141.611C203.681 142.012 204.054 142.212 204.551 142.212C205.042 142.212 205.405 142.022 205.642 141.643C205.882 141.263 206.007 140.665 206.018 139.849V138.221ZM213.188 139.58C213.188 140.744 212.989 141.609 212.592 142.175C212.195 142.74 211.573 143.023 210.728 143.023C209.894 143.023 209.276 142.747 208.875 142.196C208.474 141.641 208.266 140.814 208.252 139.715V138.388C208.252 137.239 208.451 136.385 208.848 135.826C209.246 135.267 209.869 134.988 210.717 134.988C211.559 134.988 212.178 135.258 212.576 135.799C212.973 136.336 213.177 137.167 213.188 138.291V139.58ZM212.195 138.221C212.195 137.38 212.076 136.768 211.84 136.385C211.604 135.998 211.23 135.804 210.717 135.804C210.209 135.804 209.838 135.996 209.606 136.379C209.373 136.762 209.253 137.351 209.246 138.146V139.736C209.246 140.581 209.368 141.206 209.611 141.611C209.858 142.012 210.23 142.212 210.728 142.212C211.219 142.212 211.582 142.022 211.819 141.643C212.058 141.263 212.184 140.665 212.195 139.849V138.221Z" fill="white"/>
<path d="M51.1707 203.984C50.6395 203.984 50.1707 203.797 49.7645 203.422C49.3582 203.016 49.1551 202.547 49.1551 202.016C49.1551 201.453 49.3582 200.969 49.7645 200.562L58.2489 194.938L52.577 203.422C52.202 203.797 51.7332 203.984 51.1707 203.984ZM59.5614 196.578C59.9989 197.266 60.3739 198.141 60.6864 199.203C60.9989 200.266 61.1551 201.203 61.1551 202.016C61.1551 203.859 60.7176 205.516 59.8426 206.984C59.4364 207.672 58.8582 208.016 58.1082 208.016H44.2332C43.4832 208.016 42.9051 207.672 42.4989 206.984C41.6239 205.516 41.1864 203.859 41.1864 202.016C41.1864 199.266 42.1551 196.922 44.0926 194.984C46.0614 193.016 48.4364 192.031 51.2176 192.031C52.0301 192.031 52.952 192.188 53.9832 192.5C55.0457 192.812 55.9207 193.188 56.6082 193.625L54.7332 194.844C53.6082 194.281 52.4207 194 51.1707 194C48.9832 194 47.0926 194.781 45.4989 196.344C43.9364 197.906 43.1551 199.797 43.1551 202.016C43.1551 203.453 43.5145 204.781 44.2332 206H58.1082C58.827 204.781 59.1864 203.453 59.1864 202.016C59.1864 200.734 58.9051 199.531 58.3426 198.406L59.5614 196.578Z" fill="#F6F7F9"/>
<path d="M129.155 208.016V197H115.186V208.016H129.155ZM129.155 191.984C129.686 191.984 130.155 192.188 130.561 192.594C130.968 193 131.171 193.469 131.171 194V208.016C131.171 208.547 130.968 209.016 130.561 209.422C130.155 209.797 129.686 209.984 129.155 209.984H115.186C114.624 209.984 114.139 209.797 113.733 209.422C113.358 209.047 113.171 208.578 113.171 208.016V194C113.171 193.469 113.358 193 113.733 192.594C114.139 192.188 114.624 191.984 115.186 191.984H116.171V190.016H118.186V191.984H126.155V190.016H128.171V191.984H129.155ZM127.186 199.016V200.984H125.171V199.016H127.186ZM123.155 199.016V200.984H121.186V199.016H123.155ZM119.171 199.016V200.984H117.155V199.016H119.171Z" fill="#F3F4F6"/>
<path d="M187.186 208.016H201.155V209.984H187.186V208.016ZM192.155 196.016C192.155 196.578 192.343 197.047 192.718 197.422C193.124 197.797 193.608 197.984 194.171 197.984C194.733 197.984 195.202 197.797 195.577 197.422C195.983 197.047 196.186 196.578 196.186 196.016C196.186 195.484 195.983 195.016 195.577 194.609C195.171 194.203 194.702 194 194.171 194C193.639 194 193.171 194.203 192.764 194.609C192.358 195.016 192.155 195.484 192.155 196.016ZM200.171 196.016C200.171 197.359 199.671 198.953 198.671 200.797C197.671 202.609 196.671 204.094 195.671 205.25L194.171 206.984C193.733 206.516 193.171 205.875 192.483 205.062C191.827 204.25 190.936 202.875 189.811 200.938C188.718 199 188.171 197.359 188.171 196.016C188.171 194.359 188.749 192.953 189.905 191.797C191.093 190.609 192.514 190.016 194.171 190.016C195.827 190.016 197.233 190.609 198.389 191.797C199.577 192.953 200.171 194.359 200.171 196.016Z" fill="#F6F7F9"/>
<path d="M34.5566 163.007L36.8125 169.001L39.063 163.007H40.8193V170.827H39.4658V168.249L39.6001 164.801L37.2905 170.827H36.3184L34.0142 164.806L34.1484 168.249V170.827H32.7949V163.007H34.5566ZM48.1509 163.007V168.233C48.1509 169.064 47.8841 169.722 47.3506 170.209C46.8206 170.693 46.1134 170.935 45.229 170.935C44.3338 170.935 43.623 170.696 43.0967 170.22C42.5703 169.74 42.3071 169.076 42.3071 168.228V163.007H43.6606V168.238C43.6606 168.761 43.7931 169.16 44.0581 169.436C44.3231 169.712 44.7134 169.85 45.229 169.85C46.2746 169.85 46.7974 169.298 46.7974 168.195V163.007H48.1509ZM53.6938 168.813C53.6938 168.469 53.5721 168.204 53.3286 168.018C53.0887 167.832 52.6536 167.644 52.0234 167.454C51.3932 167.264 50.8919 167.053 50.5195 166.82C49.807 166.373 49.4507 165.789 49.4507 165.069C49.4507 164.439 49.7067 163.92 50.2188 163.512C50.7344 163.104 51.4022 162.899 52.2222 162.899C52.7664 162.899 53.2516 163 53.6777 163.2C54.1038 163.401 54.4386 163.687 54.6821 164.06C54.9256 164.428 55.0474 164.838 55.0474 165.29H53.6938C53.6938 164.881 53.5649 164.563 53.3071 164.333C53.0529 164.101 52.6877 163.984 52.2114 163.984C51.7674 163.984 51.4219 164.079 51.1748 164.269C50.9313 164.459 50.8096 164.724 50.8096 165.064C50.8096 165.35 50.9421 165.59 51.207 165.784C51.472 165.973 51.9089 166.16 52.5176 166.342C53.1263 166.521 53.6151 166.727 53.9839 166.96C54.3527 167.189 54.623 167.454 54.7949 167.755C54.9668 168.052 55.0527 168.401 55.0527 168.802C55.0527 169.454 54.8021 169.973 54.3008 170.36C53.8031 170.743 53.1263 170.935 52.2705 170.935C51.7048 170.935 51.1838 170.831 50.7075 170.623C50.2349 170.412 49.866 170.122 49.6011 169.753C49.3397 169.384 49.209 168.954 49.209 168.464H50.5679C50.5679 168.908 50.7147 169.252 51.0083 169.495C51.3019 169.739 51.7227 169.86 52.2705 169.86C52.7432 169.86 53.0977 169.765 53.334 169.576C53.5739 169.382 53.6938 169.128 53.6938 168.813ZM61.8955 164.103H59.457V170.827H58.1089V164.103H55.6919V163.007H61.8955V164.103ZM66.6597 169.006H63.6304L62.9966 170.827H61.584L64.5381 163.007H65.7573L68.7168 170.827H67.2988L66.6597 169.006ZM64.0117 167.911H66.2783L65.145 164.667L64.0117 167.911ZM75.812 170.827H74.4531L70.9673 165.279V170.827H69.6084V163.007H70.9673L74.4639 168.577V163.007H75.812V170.827ZM83.4121 169.812C83.1292 170.181 82.7371 170.46 82.2358 170.65C81.7345 170.84 81.1652 170.935 80.5278 170.935C79.8726 170.935 79.2925 170.786 78.7876 170.489C78.2827 170.192 77.8924 169.767 77.6167 169.216C77.3446 168.661 77.2031 168.014 77.1924 167.277V166.665C77.1924 165.483 77.4753 164.561 78.041 163.898C78.6068 163.232 79.3963 162.899 80.4097 162.899C81.2798 162.899 81.9709 163.114 82.4829 163.544C82.995 163.974 83.3029 164.593 83.4067 165.402H82.0747C81.9243 164.461 81.3783 163.99 80.4365 163.99C79.8278 163.99 79.3641 164.21 79.0454 164.65C78.7303 165.087 78.5674 165.73 78.5566 166.579V167.18C78.5566 168.025 78.7339 168.682 79.0884 169.151C79.4465 169.617 79.9424 169.85 80.5762 169.85C81.2708 169.85 81.765 169.692 82.0586 169.377V167.846H80.4473V166.815H83.4121V169.812Z" fill="white"/>
<path d="M46.6429 225.007C46.6429 226.029 46.4508 226.8 46.0667 227.321C45.6859 227.839 45.1048 228.098 44.3236 228.098C43.5553 228.098 42.9759 227.845 42.5853 227.341C42.1979 226.833 41.9993 226.083 41.9896 225.09V223.859C41.9896 222.837 42.18 222.071 42.5609 221.56C42.945 221.049 43.5293 220.793 44.3138 220.793C45.0918 220.793 45.6712 221.042 46.0521 221.54C46.4362 222.038 46.6331 222.784 46.6429 223.776V225.007ZM45.4564 223.679C45.4564 223.011 45.3652 222.523 45.1829 222.214C45.0006 221.901 44.7109 221.745 44.3138 221.745C43.9264 221.745 43.6416 221.893 43.4593 222.189C43.277 222.482 43.181 222.941 43.1712 223.566V225.178C43.1712 225.842 43.264 226.337 43.4495 226.662C43.6351 226.988 43.9264 227.15 44.3236 227.15C44.7044 227.15 44.986 227.001 45.1683 226.701C45.3506 226.398 45.4466 225.926 45.4564 225.285V223.679ZM49.4847 225.734L48.9574 226.276V228H47.7708V220.5H48.9574V224.826L49.3284 224.362L50.7884 222.717H52.2142L50.2513 224.919L52.4242 228H51.0521L49.4847 225.734ZM54.1087 222.717L54.1429 223.269C54.514 222.836 55.0218 222.619 55.6663 222.619C56.3727 222.619 56.8561 222.889 57.1165 223.43C57.5006 222.889 58.041 222.619 58.7376 222.619C59.3203 222.619 59.7533 222.78 60.0365 223.103C60.3229 223.425 60.4694 223.9 60.4759 224.528V228H59.2894V224.562C59.2894 224.227 59.2161 223.981 59.0697 223.825C58.9232 223.669 58.6807 223.591 58.3421 223.591C58.0719 223.591 57.8506 223.664 57.6781 223.811C57.5088 223.954 57.39 224.143 57.3216 224.377L57.3265 228H56.14V224.523C56.1237 223.902 55.8063 223.591 55.1878 223.591C54.7126 223.591 54.3756 223.785 54.1771 224.172V228H52.9906V222.717H54.1087Z" fill="white"/>
<path d="M115.482 228H110.702V227.185L113.07 224.602C113.412 224.221 113.655 223.903 113.798 223.649C113.944 223.392 114.018 223.135 114.018 222.878C114.018 222.539 113.922 222.266 113.73 222.058C113.541 221.849 113.285 221.745 112.963 221.745C112.579 221.745 112.281 221.862 112.069 222.097C111.858 222.331 111.752 222.652 111.752 223.059H110.565C110.565 222.626 110.663 222.237 110.858 221.892C111.057 221.543 111.339 221.273 111.703 221.081C112.071 220.889 112.494 220.793 112.973 220.793C113.663 220.793 114.206 220.967 114.604 221.315C115.004 221.66 115.204 222.139 115.204 222.751C115.204 223.106 115.103 223.479 114.901 223.869C114.703 224.257 114.376 224.698 113.92 225.192L112.182 227.053H115.482V228ZM121.02 225.007C121.02 226.029 120.827 226.8 120.443 227.321C120.063 227.839 119.481 228.098 118.7 228.098C117.932 228.098 117.353 227.845 116.962 227.341C116.575 226.833 116.376 226.083 116.366 225.09V223.859C116.366 222.837 116.557 222.071 116.938 221.56C117.322 221.049 117.906 220.793 118.69 220.793C119.468 220.793 120.048 221.042 120.429 221.54C120.813 222.038 121.01 222.784 121.02 223.776V225.007ZM119.833 223.679C119.833 223.011 119.742 222.523 119.56 222.214C119.377 221.901 119.088 221.745 118.69 221.745C118.303 221.745 118.018 221.893 117.836 222.189C117.654 222.482 117.558 222.941 117.548 223.566V225.178C117.548 225.842 117.641 226.337 117.826 226.662C118.012 226.988 118.303 227.15 118.7 227.15C119.081 227.15 119.363 227.001 119.545 226.701C119.727 226.398 119.823 225.926 119.833 225.285V223.679ZM126.85 228H122.069V227.185L124.438 224.602C124.779 224.221 125.022 223.903 125.165 223.649C125.312 223.392 125.385 223.135 125.385 222.878C125.385 222.539 125.289 222.266 125.097 222.058C124.908 221.849 124.652 221.745 124.33 221.745C123.946 221.745 123.648 221.862 123.437 222.097C123.225 222.331 123.119 222.652 123.119 223.059H121.933C121.933 222.626 122.03 222.237 122.226 221.892C122.424 221.543 122.706 221.273 123.07 221.081C123.438 220.889 123.861 220.793 124.34 220.793C125.03 220.793 125.574 220.967 125.971 221.315C126.371 221.66 126.571 222.139 126.571 222.751C126.571 223.106 126.47 223.479 126.269 223.869C126.07 224.257 125.743 224.698 125.287 225.192L123.549 227.053H126.85V228ZM130.966 228H129.784V222.292L128.041 222.888V221.887L130.814 220.866H130.966V228Z" fill="white"/>
<path d="M158.765 225.261H157.388V228H156.152V220.891H158.652C159.473 220.891 160.106 221.075 160.552 221.442C160.998 221.81 161.221 222.342 161.221 223.039C161.221 223.514 161.105 223.913 160.874 224.235C160.646 224.554 160.327 224.8 159.917 224.973L161.514 227.937V228H160.19L158.765 225.261ZM157.388 224.27H158.657C159.074 224.27 159.399 224.165 159.634 223.957C159.868 223.745 159.985 223.457 159.985 223.093C159.985 222.712 159.876 222.417 159.658 222.209C159.443 222.001 159.121 221.893 158.691 221.887H157.388V224.27ZM163.54 228H162.353V222.717H163.54V228ZM162.28 221.345C162.28 221.162 162.337 221.011 162.451 220.891C162.568 220.77 162.734 220.71 162.949 220.71C163.164 220.71 163.33 220.77 163.447 220.891C163.564 221.011 163.623 221.162 163.623 221.345C163.623 221.524 163.564 221.674 163.447 221.794C163.33 221.911 163.164 221.97 162.949 221.97C162.734 221.97 162.568 221.911 162.451 221.794C162.337 221.674 162.28 221.524 162.28 221.345ZM164.614 225.31C164.614 224.792 164.717 224.326 164.922 223.913C165.127 223.496 165.415 223.177 165.786 222.956C166.157 222.731 166.584 222.619 167.065 222.619C167.778 222.619 168.356 222.849 168.799 223.308C169.245 223.767 169.486 224.375 169.521 225.134L169.526 225.412C169.526 225.933 169.425 226.398 169.224 226.809C169.025 227.219 168.739 227.536 168.364 227.761C167.993 227.985 167.563 228.098 167.075 228.098C166.33 228.098 165.732 227.85 165.283 227.355C164.837 226.857 164.614 226.195 164.614 225.368V225.31ZM165.801 225.412C165.801 225.956 165.913 226.382 166.138 226.691C166.362 226.997 166.675 227.15 167.075 227.15C167.476 227.15 167.786 226.994 168.008 226.682C168.232 226.369 168.345 225.912 168.345 225.31C168.345 224.776 168.229 224.353 167.998 224.04C167.77 223.728 167.459 223.571 167.065 223.571C166.678 223.571 166.37 223.726 166.142 224.035C165.915 224.341 165.801 224.8 165.801 225.412ZM172.798 225.319C172.798 224.506 172.987 223.853 173.364 223.361C173.742 222.867 174.248 222.619 174.883 222.619C175.443 222.619 175.895 222.814 176.24 223.205V220.5H177.427V228H176.352L176.294 227.453C175.939 227.883 175.465 228.098 174.873 228.098C174.254 228.098 173.753 227.849 173.369 227.351C172.988 226.853 172.798 226.175 172.798 225.319ZM173.984 225.422C173.984 225.959 174.087 226.379 174.292 226.682C174.5 226.981 174.795 227.131 175.176 227.131C175.661 227.131 176.016 226.914 176.24 226.481V224.226C176.022 223.802 175.67 223.591 175.185 223.591C174.801 223.591 174.505 223.744 174.297 224.05C174.088 224.353 173.984 224.81 173.984 225.422ZM180.991 228.098C180.239 228.098 179.629 227.862 179.16 227.39C178.695 226.914 178.462 226.283 178.462 225.495V225.349C178.462 224.821 178.563 224.351 178.765 223.938C178.97 223.521 179.256 223.197 179.624 222.966C179.992 222.735 180.402 222.619 180.854 222.619C181.574 222.619 182.129 222.849 182.519 223.308C182.913 223.767 183.11 224.416 183.11 225.256V225.734H179.658C179.694 226.171 179.839 226.516 180.093 226.77C180.35 227.023 180.672 227.15 181.059 227.15C181.603 227.15 182.046 226.931 182.388 226.491L183.027 227.102C182.816 227.417 182.532 227.663 182.178 227.839C181.826 228.011 181.431 228.098 180.991 228.098ZM180.85 223.571C180.524 223.571 180.26 223.685 180.059 223.913C179.86 224.141 179.733 224.458 179.678 224.865H181.938V224.777C181.912 224.38 181.807 224.081 181.621 223.879C181.435 223.674 181.178 223.571 180.85 223.571ZM187.764 222.717V228.469C187.764 229.009 187.628 229.421 187.358 229.704C187.091 229.991 186.699 230.134 186.182 230.134C185.963 230.134 185.753 230.106 185.552 230.051V229.113C185.675 229.143 185.815 229.157 185.972 229.157C186.365 229.157 186.567 228.942 186.577 228.513V222.717H187.764ZM186.475 221.345C186.475 221.162 186.531 221.011 186.645 220.891C186.763 220.77 186.929 220.71 187.143 220.71C187.358 220.71 187.524 220.77 187.642 220.891C187.759 221.011 187.817 221.162 187.817 221.345C187.817 221.524 187.759 221.674 187.642 221.794C187.524 221.911 187.358 221.97 187.143 221.97C186.929 221.97 186.763 221.911 186.645 221.794C186.531 221.674 186.475 221.524 186.475 221.345ZM192.192 228C192.14 227.899 192.095 227.735 192.056 227.507C191.678 227.901 191.216 228.098 190.669 228.098C190.138 228.098 189.705 227.946 189.37 227.644C189.035 227.341 188.867 226.966 188.867 226.521C188.867 225.957 189.075 225.526 189.492 225.227C189.912 224.924 190.511 224.772 191.289 224.772H192.017V224.426C192.017 224.152 191.94 223.934 191.787 223.771C191.634 223.605 191.401 223.522 191.089 223.522C190.819 223.522 190.597 223.591 190.425 223.728C190.252 223.861 190.166 224.032 190.166 224.24H188.979C188.979 223.951 189.075 223.68 189.267 223.43C189.46 223.176 189.72 222.977 190.049 222.834C190.381 222.691 190.75 222.619 191.157 222.619C191.776 222.619 192.269 222.775 192.637 223.088C193.004 223.397 193.193 223.833 193.203 224.396V226.779C193.203 227.255 193.27 227.634 193.403 227.917V228H192.192ZM190.889 227.146C191.123 227.146 191.343 227.089 191.548 226.975C191.756 226.861 191.912 226.708 192.017 226.516V225.52H191.377C190.937 225.52 190.607 225.596 190.386 225.749C190.164 225.902 190.054 226.118 190.054 226.398C190.054 226.626 190.128 226.809 190.278 226.945C190.431 227.079 190.635 227.146 190.889 227.146ZM195.547 222.717L195.581 223.327C195.972 222.855 196.484 222.619 197.119 222.619C198.219 222.619 198.779 223.249 198.799 224.509V228H197.612V224.577C197.612 224.242 197.539 223.994 197.392 223.835C197.249 223.672 197.013 223.591 196.684 223.591C196.206 223.591 195.85 223.807 195.615 224.24V228H194.429V222.717H195.547ZM202.339 228.098C201.587 228.098 200.976 227.862 200.508 227.39C200.042 226.914 199.809 226.283 199.809 225.495V225.349C199.809 224.821 199.91 224.351 200.112 223.938C200.317 223.521 200.604 223.197 200.972 222.966C201.339 222.735 201.75 222.619 202.202 222.619C202.921 222.619 203.476 222.849 203.867 223.308C204.261 223.767 204.458 224.416 204.458 225.256V225.734H201.006C201.042 226.171 201.186 226.516 201.44 226.77C201.698 227.023 202.02 227.15 202.407 227.15C202.951 227.15 203.393 226.931 203.735 226.491L204.375 227.102C204.163 227.417 203.88 227.663 203.525 227.839C203.174 228.011 202.778 228.098 202.339 228.098ZM202.197 223.571C201.872 223.571 201.608 223.685 201.406 223.913C201.208 224.141 201.081 224.458 201.025 224.865H203.286V224.777C203.26 224.38 203.154 224.081 202.969 223.879C202.783 223.674 202.526 223.571 202.197 223.571ZM206.645 228H205.459V222.717H206.645V228ZM205.386 221.345C205.386 221.162 205.443 221.011 205.557 220.891C205.674 220.77 205.84 220.71 206.055 220.71C206.269 220.71 206.435 220.77 206.553 220.891C206.67 221.011 206.728 221.162 206.728 221.345C206.728 221.524 206.67 221.674 206.553 221.794C206.435 221.911 206.269 221.97 206.055 221.97C205.84 221.97 205.674 221.911 205.557 221.794C205.443 221.674 205.386 221.524 205.386 221.345ZM210.708 223.801C210.552 223.775 210.391 223.762 210.225 223.762C209.681 223.762 209.315 223.97 209.126 224.387V228H207.939V222.717H209.072L209.101 223.308C209.388 222.849 209.785 222.619 210.293 222.619C210.462 222.619 210.602 222.642 210.713 222.688L210.708 223.801ZM211.059 225.31C211.059 224.792 211.162 224.326 211.367 223.913C211.572 223.496 211.86 223.177 212.231 222.956C212.602 222.731 213.029 222.619 213.511 222.619C214.224 222.619 214.801 222.849 215.244 223.308C215.69 223.767 215.931 224.375 215.967 225.134L215.972 225.412C215.972 225.933 215.871 226.398 215.669 226.809C215.47 227.219 215.184 227.536 214.809 227.761C214.438 227.985 214.009 228.098 213.52 228.098C212.775 228.098 212.178 227.85 211.728 227.355C211.282 226.857 211.059 226.195 211.059 225.368V225.31ZM212.246 225.412C212.246 225.956 212.358 226.382 212.583 226.691C212.808 226.997 213.12 227.15 213.52 227.15C213.921 227.15 214.232 226.994 214.453 226.682C214.678 226.369 214.79 225.912 214.79 225.31C214.79 224.776 214.674 224.353 214.443 224.04C214.215 223.728 213.905 223.571 213.511 223.571C213.123 223.571 212.816 223.726 212.588 224.035C212.36 224.341 212.246 224.8 212.246 225.412ZM217.309 228.61H216.377L219.175 220.891H220.107L217.309 228.61ZM223.657 225.261H222.28V228H221.045V220.891H223.545C224.365 220.891 224.998 221.075 225.444 221.442C225.89 221.81 226.113 222.342 226.113 223.039C226.113 223.514 225.998 223.913 225.767 224.235C225.539 224.554 225.22 224.8 224.809 224.973L226.406 227.937V228H225.083L223.657 225.261ZM222.28 224.27H223.55C223.966 224.27 224.292 224.165 224.526 223.957C224.761 223.745 224.878 223.457 224.878 223.093C224.878 222.712 224.769 222.417 224.551 222.209C224.336 222.001 224.014 221.893 223.584 221.887H222.28V224.27ZM230.195 220.891H231.426V225.876C231.426 226.556 231.212 227.097 230.786 227.497C230.363 227.897 229.803 228.098 229.106 228.098C228.364 228.098 227.791 227.91 227.388 227.536C226.984 227.162 226.782 226.641 226.782 225.974H228.013C228.013 226.351 228.105 226.636 228.291 226.828C228.48 227.017 228.752 227.111 229.106 227.111C229.438 227.111 229.702 227.002 229.897 226.784C230.096 226.563 230.195 226.258 230.195 225.871V220.891Z" fill="white"/>
<g filter="url(#filter1_d)">
<rect x="86.5151" y="7" width="87.9695" height="11.1707" fill="#0F0F0F"/>
</g>
<path d="M116.13 9.34521H113.73V16H112.751V9.34521H110.357V8.53516H116.13V9.34521ZM116.324 13.175C116.324 12.6316 116.43 12.1428 116.642 11.7087C116.858 11.2747 117.155 10.9397 117.534 10.7039C117.917 10.468 118.353 10.3501 118.842 10.3501C119.597 10.3501 120.207 10.6116 120.672 11.1345C121.14 11.6575 121.375 12.353 121.375 13.2212V13.2878C121.375 13.8279 121.27 14.3132 121.062 14.7439C120.857 15.1711 120.561 15.5044 120.175 15.7437C119.792 15.9829 119.351 16.1025 118.852 16.1025C118.1 16.1025 117.49 15.8411 117.022 15.3181C116.557 14.7952 116.324 14.103 116.324 13.2417V13.175ZM117.278 13.2878C117.278 13.9031 117.42 14.397 117.704 14.7695C117.991 15.1421 118.374 15.3284 118.852 15.3284C119.334 15.3284 119.717 15.1404 120 14.7644C120.284 14.385 120.426 13.8552 120.426 13.175C120.426 12.5667 120.281 12.0745 119.99 11.6985C119.703 11.3191 119.32 11.1294 118.842 11.1294C118.374 11.1294 117.996 11.3157 117.709 11.6882C117.422 12.0608 117.278 12.594 117.278 13.2878ZM125.507 12.2573L125.886 8.53516H129.711V9.41187H126.691L126.466 11.4473C126.831 11.2319 127.247 11.1243 127.711 11.1243C128.392 11.1243 128.932 11.3499 129.332 11.801C129.731 12.2488 129.931 12.8555 129.931 13.6211C129.931 14.3901 129.723 14.9968 129.306 15.4412C128.892 15.8821 128.313 16.1025 127.568 16.1025C126.908 16.1025 126.37 15.9197 125.953 15.554C125.536 15.1882 125.298 14.6824 125.24 14.0364H126.137C126.196 14.4636 126.348 14.7866 126.594 15.0054C126.84 15.2207 127.165 15.3284 127.568 15.3284C128.009 15.3284 128.354 15.178 128.604 14.8772C128.856 14.5764 128.983 14.1611 128.983 13.6313C128.983 13.1323 128.846 12.7324 128.573 12.4316C128.303 12.1274 127.942 11.9753 127.491 11.9753C127.077 11.9753 126.753 12.0659 126.517 12.2471L126.266 12.4521L125.507 12.2573ZM133.438 13.1802C133.438 12.3291 133.64 11.6455 134.043 11.1294C134.447 10.6099 134.975 10.3501 135.627 10.3501C136.277 10.3501 136.791 10.5723 137.171 11.0166V8.125H138.119V16H137.248L137.201 15.4053C136.822 15.8701 136.294 16.1025 135.617 16.1025C134.975 16.1025 134.45 15.8394 134.043 15.313C133.64 14.7866 133.438 14.0996 133.438 13.252V13.1802ZM134.387 13.2878C134.387 13.9167 134.517 14.4089 134.776 14.7644C135.036 15.1199 135.395 15.2976 135.853 15.2976C136.455 15.2976 136.894 15.0276 137.171 14.4875V11.9395C136.887 11.4165 136.451 11.155 135.863 11.155C135.398 11.155 135.036 11.3345 134.776 11.6934C134.517 12.0522 134.387 12.5837 134.387 13.2878ZM143.021 16C142.966 15.8906 142.921 15.6958 142.887 15.4155C142.446 15.8735 141.92 16.1025 141.308 16.1025C140.761 16.1025 140.312 15.9487 139.96 15.6411C139.611 15.3301 139.437 14.937 139.437 14.4619C139.437 13.8843 139.656 13.4365 140.093 13.1187C140.534 12.7974 141.153 12.6367 141.949 12.6367H142.872V12.2009C142.872 11.8694 142.773 11.6062 142.574 11.4114C142.376 11.2131 142.084 11.114 141.698 11.114C141.359 11.114 141.076 11.1995 140.847 11.3704C140.618 11.5413 140.503 11.748 140.503 11.9907H139.55C139.55 11.7139 139.647 11.4473 139.842 11.1909C140.04 10.9312 140.307 10.7261 140.642 10.5757C140.98 10.4253 141.351 10.3501 141.754 10.3501C142.393 10.3501 142.894 10.5107 143.256 10.832C143.619 11.1499 143.807 11.5891 143.82 12.1497V14.7029C143.82 15.2122 143.885 15.6172 144.015 15.918V16H143.021ZM141.447 15.2771C141.744 15.2771 142.026 15.2002 142.292 15.0464C142.559 14.8926 142.752 14.6926 142.872 14.4465V13.3083H142.128C140.966 13.3083 140.385 13.6484 140.385 14.3286C140.385 14.626 140.484 14.8584 140.683 15.0259C140.881 15.1934 141.135 15.2771 141.447 15.2771ZM147.04 14.6106L148.332 10.4526H149.347L147.117 16.8562C146.772 17.7791 146.223 18.2405 145.471 18.2405L145.292 18.2251L144.938 18.1584V17.3894L145.194 17.4099C145.516 17.4099 145.765 17.345 145.943 17.2151C146.124 17.0852 146.273 16.8477 146.389 16.5024L146.599 15.9385L144.62 10.4526H145.656L147.04 14.6106ZM153.428 14.5286C153.428 14.2722 153.331 14.074 153.136 13.9338C152.945 13.7903 152.608 13.6672 152.126 13.5647C151.647 13.4622 151.266 13.3391 150.983 13.1956C150.702 13.052 150.494 12.8811 150.357 12.6829C150.224 12.4846 150.157 12.2488 150.157 11.9753C150.157 11.5208 150.349 11.1362 150.731 10.8218C151.118 10.5073 151.61 10.3501 152.208 10.3501C152.837 10.3501 153.346 10.5125 153.736 10.8372C154.129 11.1619 154.325 11.5771 154.325 12.083H153.372C153.372 11.8232 153.261 11.5994 153.039 11.4114C152.82 11.2234 152.543 11.1294 152.208 11.1294C151.863 11.1294 151.593 11.2046 151.398 11.355C151.203 11.5054 151.106 11.7019 151.106 11.9446C151.106 12.1736 151.196 12.3462 151.377 12.4624C151.559 12.5786 151.885 12.6897 152.357 12.7957C152.832 12.9016 153.216 13.0281 153.51 13.175C153.804 13.322 154.021 13.4998 154.161 13.7083C154.305 13.9133 154.377 14.1646 154.377 14.4619C154.377 14.9575 154.178 15.3557 153.782 15.6565C153.385 15.9539 152.871 16.1025 152.239 16.1025C151.794 16.1025 151.401 16.0239 151.06 15.8667C150.718 15.7095 150.449 15.4907 150.255 15.2104C150.063 14.9268 149.968 14.6208 149.968 14.2927H150.916C150.933 14.6106 151.06 14.8635 151.295 15.0515C151.535 15.2361 151.849 15.3284 152.239 15.3284C152.598 15.3284 152.885 15.2566 153.1 15.113C153.319 14.9661 153.428 14.7712 153.428 14.5286Z" fill="white"/>
<defs>
<filter id="filter0_d" x="0" y="0.585449" width="261" height="256.811" filterUnits="userSpaceOnUse" color-interpolation-filters="sRGB">
<feFlood flood-opacity="0" result="BackgroundImageFix"/>
<feColorMatrix in="SourceAlpha" type="matrix" values="0 0 0 0 0 0 0 0 0 0 0 0 0 0 0 0 0 0 127 0"/>
<feOffset dy="4"/>
<feGaussianBlur stdDeviation="8"/>
<feColorMatrix type="matrix" values="0 0 0 0 0 0 0 0 0 0 0 0 0 0 0 0 0 0 0.25 0"/>
<feBlend mode="normal" in2="BackgroundImageFix" result="effect1_dropShadow"/>
<feBlend mode="normal" in="SourceGraphic" in2="effect1_dropShadow" result="shape"/>
</filter>
<filter id="filter1_d" x="82.5151" y="7" width="95.9695" height="19.1707" filterUnits="userSpaceOnUse" color-interpolation-filters="sRGB">
<feFlood flood-opacity="0" result="BackgroundImageFix"/>
<feColorMatrix in="SourceAlpha" type="matrix" values="0 0 0 0 0 0 0 0 0 0 0 0 0 0 0 0 0 0 127 0"/>
<feOffset dy="4"/>
<feGaussianBlur stdDeviation="2"/>
<feColorMatrix type="matrix" values="0 0 0 0 0 0 0 0 0 0 0 0 0 0 0 0 0 0 0.25 0"/>
<feBlend mode="normal" in2="BackgroundImageFix" result="effect1_dropShadow"/>
<feBlend mode="normal" in="SourceGraphic" in2="effect1_dropShadow" result="shape"/>
</filter>
</defs>
</svg>
